<?xml version="1.0" encoding="UTF-8"?>
<svg data-bbox="-57.887 6.97 283.36 172.194" viewBox="0 0 167.58 190" height="190pt" width="223.44" xmlns:xlink="http://www.w3.org/1999/xlink" xmlns="http://www.w3.org/2000/svg" data-type="color">
    <g>
        <defs>
            <symbol id="41ea40e1-f96e-4cda-9e45-19b01d91d184" overflow="visible">
                <path d="M21.281.953c-3.343 0-6.453-.637-9.328-1.906-2.867-1.281-5.18-3.18-6.937-5.703-1.75-2.52-2.625-5.64-2.625-9.36 0-.32.007-.64.03-.953.032-.32.048-.593.048-.812h10.61c0 .062-.017.242-.048.531a7.237 7.237 0 0 0-.047.75c0 2.605.77 4.703 2.313 6.297 1.539 1.594 3.695 2.39 6.469 2.39 3.07 0 5.218-.675 6.437-2.03 1.227-1.352 1.844-2.829 1.844-4.423 0-1.863-.48-3.351-1.438-4.468-.96-1.114-2.226-2.032-3.797-2.75-1.562-.72-3.289-1.368-5.171-1.953a85.447 85.447 0 0 1-5.703-1.985 21.897 21.897 0 0 1-5.22-2.906c-1.562-1.195-2.823-2.75-3.78-4.656-.961-1.914-1.438-4.364-1.438-7.344 0-3.457.848-6.313 2.547-8.563 1.707-2.257 3.957-3.945 6.75-5.062 2.789-1.113 5.805-1.672 9.047-1.672 3.187 0 6.117.559 8.797 1.672 2.687 1.117 4.836 2.855 6.453 5.219 1.625 2.367 2.437 5.433 2.437 9.203v.953H29.094v-.719c0-2.332-.653-4.176-1.953-5.531-1.305-1.352-3.125-2.031-5.47-2.031-2.437 0-4.323.547-5.655 1.64-1.325 1.086-1.985 2.477-1.985 4.172 0 1.594.473 2.871 1.422 3.828.957.961 2.219 1.758 3.781 2.39a55.704 55.704 0 0 0 5.235 1.798 62.593 62.593 0 0 1 5.703 1.953c1.883.742 3.61 1.71 5.172 2.906 1.57 1.2 2.832 2.742 3.781 4.625.957 1.887 1.438 4.262 1.438 7.125 0 4.2-.825 7.563-2.47 10.094-1.648 2.523-3.917 4.367-6.812 5.531-2.898 1.164-6.23 1.75-10 1.75Zm0 0"/>
            </symbol>
            <symbol id="417dc5cb-75ba-4bd7-8260-fcde99824782" overflow="visible">
                <path d="M34.266 9.89 26.375.954h-.953c-7.063 0-12.617-2.305-16.656-6.922-4.043-4.625-6.063-11.75-6.063-21.375 0-9.664 2.02-16.797 6.063-21.39 4.039-4.594 9.593-6.891 16.656-6.891 7.07 0 12.625 2.297 16.656 6.89 4.04 4.594 6.063 11.727 6.063 21.391 0 6.856-1.04 12.422-3.11 16.703-2.074 4.282-4.996 7.375-8.765 9.282L46.78 9.89ZM25.422-7.812c4.094 0 7.148-1.55 9.172-4.656 2.02-3.113 3.031-7.406 3.031-12.875v-3.984c0-5.477-1.012-9.77-3.031-12.875-2.024-3.102-5.078-4.656-9.172-4.656-4.031 0-7.074 1.554-9.125 4.656-2.043 3.105-3.063 7.398-3.063 12.875v3.984c0 5.469 1.02 9.762 3.063 12.875 2.05 3.106 5.094 4.656 9.125 4.656Zm0 0"/>
            </symbol>
            <symbol id="0c598fed-0869-4311-89bc-fe4e73446fe0" overflow="visible">
                <path d="M4.781 0v-54.672h10.203v45.11h23.11V0Zm0 0"/>
            </symbol>
            <clipPath id="d34b02f5-9082-496c-b3ae-ebb020a6d52b">
                <path d="M10 10h148v169H10Zm0 0"/>
            </clipPath>
            <clipPath id="6550b4c4-6c7a-436a-86e3-73da8e11ccd3">
                <path d="M81.203 11.453 12.734 50.984c-1.43.825-2.59 2.832-2.59 4.48v79.067c0 1.649 1.16 3.656 2.59 4.48l68.47 39.532c1.429.828 3.745.828 5.175 0l68.473-39.531c1.43-.825 2.585-2.832 2.585-4.48V55.464c0-1.649-1.156-3.656-2.585-4.48L86.379 11.452c-1.43-.828-3.746-.828-5.176 0Zm0 0"/>
            </clipPath>
        </defs>
        <path d="M81.203 11.453 12.734 50.984c-1.43.825-2.59 2.832-2.59 4.48v79.067c0 1.649 1.16 3.656 2.59 4.48l68.47 39.532c1.429.828 3.745.828 5.175 0l68.473-39.531c1.43-.825 2.585-2.832 2.585-4.48V55.464c0-1.649-1.156-3.656-2.585-4.48L86.379 11.452c-1.43-.828-3.746-.828-5.176 0Zm0 0" fill="#003566" data-color="1"/>
        <g clip-path="url(#d34b02f5-9082-496c-b3ae-ebb020a6d52b)">
            <g clip-path="url(#6550b4c4-6c7a-436a-86e3-73da8e11ccd3)">
                <path d="M-55.324 11.496 222.91 178.5c1.414.852 2.563.2 2.563-1.45V12.946a2.99 2.99 0 0 0-2.989-2.988H-54.898a2.986 2.986 0 0 1-2.989-2.988c0 1.652 1.145 3.676 2.563 4.527Zm0 0" fill="#3a6ea5" data-color="2"/>
                <path d="M222.91 11.496-55.324 178.5c-1.418.852-2.563.2-2.563-1.45V12.946a2.988 2.988 0 0 1 2.989-2.988h277.382a2.988 2.988 0 0 0 2.989-2.988c0 1.652-1.149 3.676-2.563 4.527Zm0 0" fill="#004e98" data-color="3"/>
            </g>
        </g>
        <use y="117.873" x="16.603" xlink:href="#41ea40e1-f96e-4cda-9e45-19b01d91d184" fill="#ffffff" data-color="4"/>
        <use y="117.873" x="60.2" xlink:href="#417dc5cb-75ba-4bd7-8260-fcde99824782" fill="#ffffff" data-color="4"/>
        <use y="117.873" x="111.049" xlink:href="#0c598fed-0869-4311-89bc-fe4e73446fe0" fill="#ffffff" data-color="4"/>
    </g>
</svg>
